<svg width="40" height="40" viewBox="0 0 40 40" fill="none" xmlns="http://www.w3.org/2000/svg">
<rect width="40" height="40" rx="20" fill="#FFECB8"/>
<path d="M27.5 20C27.5 20.1658 27.4342 20.3247 27.3169 20.4419C27.1997 20.5592 27.0408 20.625 26.875 20.625H13.125C12.9592 20.625 12.8003 20.5592 12.6831 20.4419C12.5658 20.3247 12.5 20.1658 12.5 20C12.5 19.8342 12.5658 19.6753 12.6831 19.5581C12.8003 19.4408 12.9592 19.375 13.125 19.375H26.875C27.0408 19.375 27.1997 19.4408 27.3169 19.5581C27.4342 19.6753 27.5 19.8342 27.5 20ZM13.125 15.625H26.875C27.0408 15.625 27.1997 15.5592 27.3169 15.4419C27.4342 15.3247 27.5 15.1658 27.5 15C27.5 14.8342 27.4342 14.6753 27.3169 14.5581C27.1997 14.4408 27.0408 14.375 26.875 14.375H13.125C12.9592 14.375 12.8003 14.4408 12.6831 14.5581C12.5658 14.6753 12.5 14.8342 12.5 15C12.5 15.1658 12.5658 15.3247 12.6831 15.4419C12.8003 15.5592 12.9592 15.625 13.125 15.625ZM26.875 24.375H13.125C12.9592 24.375 12.8003 24.4408 12.6831 24.5581C12.5658 24.6753 12.5 24.8342 12.5 25C12.5 25.1658 12.5658 25.3247 12.6831 25.4419C12.8003 25.5592 12.9592 25.625 13.125 25.625H26.875C27.0408 25.625 27.1997 25.5592 27.3169 25.4419C27.4342 25.3247 27.5 25.1658 27.5 25C27.5 24.8342 27.4342 24.6753 27.3169 24.5581C27.1997 24.4408 27.0408 24.375 26.875 24.375Z" fill="#1D4E1A"/>
</svg>
