<svg width="40" height="40" viewBox="0 0 40 40" fill="none" xmlns="http://www.w3.org/2000/svg">
<rect width="40" height="40" rx="20" fill="#FFECB8"/>
<path d="M26.0673 25.1828C26.1254 25.2409 26.1714 25.3098 26.2028 25.3857C26.2343 25.4616 26.2505 25.5429 26.2505 25.625C26.2505 25.7071 26.2343 25.7884 26.2028 25.8643C26.1714 25.9402 26.1254 26.0091 26.0673 26.0672C26.0092 26.1253 25.9403 26.1713 25.8644 26.2027C25.7885 26.2342 25.7072 26.2503 25.6251 26.2503C25.543 26.2503 25.4617 26.2342 25.3858 26.2027C25.3099 26.1713 25.241 26.1253 25.1829 26.0672L20.0001 20.8836L14.8173 26.0672C14.7 26.1845 14.541 26.2503 14.3751 26.2503C14.2093 26.2503 14.0502 26.1845 13.9329 26.0672C13.8156 25.9499 13.7498 25.7908 13.7498 25.625C13.7498 25.4591 13.8156 25.3001 13.9329 25.1828L19.1165 20L13.9329 14.8172C13.8156 14.6999 13.7498 14.5408 13.7498 14.375C13.7498 14.2091 13.8156 14.0501 13.9329 13.9328C14.0502 13.8155 14.2093 13.7496 14.3751 13.7496C14.541 13.7496 14.7 13.8155 14.8173 13.9328L20.0001 19.1164L25.1829 13.9328C25.3002 13.8155 25.4593 13.7496 25.6251 13.7496C25.791 13.7496 25.95 13.8155 26.0673 13.9328C26.1846 14.0501 26.2505 14.2091 26.2505 14.375C26.2505 14.5408 26.1846 14.6999 26.0673 14.8172L20.8837 20L26.0673 25.1828Z" fill="#1D4E1A"/>
</svg>
